# xmcd CD database file
#
# Track frame offsets:
#	150
#	28900
#	54017
#	72482
#	94910
#	111267
#	123240
#	134750
#	154272
#	172190
#	189717
#	196072
#	200147
#
# Disc length: 2729 seconds
#
# Revision: 0
# Processed by: cddbd v1.5.2PL0 Copyright (c) Steve Scherf et al.
# Submitted via: CDex 1.70beta2
#
DISCID=c70aa70d
DTITLE=Southern Arts Guitar Consort - Reflections
DYEAR=1997
DGENRE=New Age
TTITLE0=J Pachelbel - Canon in G
TTITLE1=Le Tombeau de Couperin - Minuet
TTITLE2=Le Tombeau de Couperin - Riguadon
TTITLE3=J S Bach - Fugue in G Minor
TTITLE4=Boyce Symphony no 1 - Allegro
TTITLE5=Boyce Symphony no 1 - Moderato E Dolce
TTITLE6=Boyce Symphony no 1 - Allegro
TTITLE7=R V Williams - Rhosymedre
TTITLE8=Scot Joplin - The Entertainer
TTITLE9=The Maple Leaf Rag
TTITLE10=J S Bach - Christ Lag in Tdesbanden
TTITLE11=Nun Danket Alle Gott
TTITLE12=In Dulci Jubilo
EXTD=YEAR: 1997
EXTT0=
EXTT1=
EXTT2=
EXTT3=
EXTT4=
EXTT5=
EXTT6=
EXTT7=
EXTT8=
EXTT9=
EXTT10=
EXTT11=
EXTT12=
PLAYORDER=
